G75*
%MOIN*%
%OFA0B0*%
%FSLAX25Y25*%
%IPPOS*%
%LPD*%
%AMOC8*
5,1,8,0,0,1.08239X$1,22.5*
%
%ADD10OC8,0.07100*%
%ADD11C,0.03162*%
%ADD12OC8,0.06400*%
%ADD13C,0.08600*%
%ADD14C,0.06800*%
%ADD15OC8,0.15800*%
%ADD16C,0.07400*%
%ADD17C,0.07800*%
%ADD18R,0.04800X0.04800*%
%ADD19C,0.04800*%
D10*
X0311800Y0258933D03*
X0311800Y0268933D03*
X0251800Y0343933D03*
X0251800Y0353933D03*
D11*
X0251800Y0353933D03*
X0251800Y0343933D03*
X0311800Y0268933D03*
X0311800Y0258933D03*
D12*
X0336800Y0269996D03*
X0271800Y0292870D03*
X0251800Y0309996D03*
X0271800Y0344996D03*
X0251800Y0257870D03*
X0253863Y0208933D03*
X0201737Y0208933D03*
X0067863Y0208933D03*
X0067863Y0228933D03*
X0015737Y0228933D03*
X0015737Y0208933D03*
X0336800Y0217870D03*
D13*
X0096300Y0283933D03*
X0066800Y0283933D03*
X0066800Y0362633D03*
X0066800Y0382333D03*
X0096300Y0382333D03*
X0096300Y0362633D03*
D14*
X0382800Y0208933D02*
X0388800Y0208933D01*
X0388800Y0198933D02*
X0382800Y0198933D01*
X0382800Y0188933D02*
X0388800Y0188933D01*
X0388800Y0178933D02*
X0382800Y0178933D01*
X0382800Y0168933D02*
X0388800Y0168933D01*
X0388800Y0158933D02*
X0382800Y0158933D01*
X0382800Y0148933D02*
X0388800Y0148933D01*
X0388800Y0138933D02*
X0382800Y0138933D01*
X0382800Y0128933D02*
X0388800Y0128933D01*
X0388800Y0118933D02*
X0382800Y0118933D01*
X0382800Y0108933D02*
X0388800Y0108933D01*
X0388800Y0098933D02*
X0382800Y0098933D01*
X0382800Y0088933D02*
X0388800Y0088933D01*
D15*
X0118800Y0083933D03*
X0111800Y0116933D03*
X0166800Y0083933D03*
X0246800Y0083933D03*
X0401800Y0240933D03*
X0016800Y0348933D03*
X0016800Y0378933D03*
D16*
X0061800Y0258933D03*
X0101800Y0258933D03*
D17*
X0200300Y0187933D02*
X0207300Y0187933D01*
X0207300Y0167933D02*
X0200300Y0167933D01*
X0200300Y0125933D02*
X0207300Y0125933D01*
X0207300Y0105933D02*
X0200300Y0105933D01*
D18*
X0277800Y0224933D03*
X0221800Y0264933D03*
X0263800Y0283933D03*
X0343800Y0283933D03*
X0279800Y0372933D03*
X0323800Y0383933D03*
D19*
X0341800Y0318933D03*
M02*
