G75*
%MOIN*%
%OFA0B0*%
%FSLAX25Y25*%
%IPPOS*%
%LPD*%
%AMOC8*
5,1,8,0,0,1.08239X$1,22.5*
%
%ADD10C,0.01600*%
%ADD11OC8,0.06300*%
%ADD12C,0.00000*%
%ADD13R,0.05512X0.03937*%
%ADD14R,0.03543X0.02756*%
%ADD15OC8,0.06400*%
%ADD16C,0.08000*%
%ADD17R,0.06890X0.02559*%
%ADD18R,0.05709X0.01181*%
%ADD19C,0.06800*%
%ADD20OC8,0.15000*%
%ADD21R,0.06299X0.07087*%
%ADD22R,0.07087X0.06299*%
%ADD23C,0.07200*%
%ADD24R,0.02362X0.04724*%
%ADD25C,0.07000*%
%ADD26C,0.18100*%
%ADD27C,0.01200*%
%ADD28R,0.05200X0.05200*%
%ADD29C,0.05200*%
%ADD30C,0.08600*%
%ADD31C,0.15000*%
%ADD32C,0.10000*%
D10*
X0001800Y0063933D02*
X0001800Y0403933D01*
X0431800Y0403933D01*
X0431800Y0063933D01*
X0001800Y0063933D01*
X0068800Y0069933D02*
X0399800Y0067933D01*
X0399800Y0159933D01*
X0398800Y0158933D01*
X0385800Y0158933D01*
X0385800Y0148933D02*
X0267800Y0148933D01*
X0232800Y0183933D01*
X0232800Y0302933D01*
X0216800Y0318933D01*
X0216800Y0343933D01*
X0211800Y0348933D01*
X0211800Y0363933D01*
X0209300Y0366433D01*
X0197824Y0366433D01*
X0197824Y0361433D02*
X0204300Y0361433D01*
X0206800Y0358933D01*
X0206800Y0348933D01*
X0211800Y0343933D01*
X0211800Y0313933D01*
X0221800Y0303933D01*
X0221800Y0264933D01*
X0240800Y0272933D02*
X0240800Y0249933D01*
X0241800Y0248933D01*
X0243060Y0247673D01*
X0243060Y0244075D01*
X0246800Y0244075D02*
X0246800Y0247933D01*
X0245800Y0248933D01*
X0245800Y0263933D01*
X0266800Y0263933D01*
X0266800Y0246933D01*
X0269800Y0244933D01*
X0311800Y0244933D01*
X0311800Y0224933D01*
X0277800Y0224933D01*
X0262800Y0208996D02*
X0253863Y0208933D01*
X0262800Y0208996D02*
X0262800Y0246933D01*
X0261800Y0247933D01*
X0250800Y0247933D01*
X0250800Y0256870D01*
X0251800Y0257870D01*
X0250800Y0247933D02*
X0250540Y0247673D01*
X0250540Y0244075D01*
X0241800Y0248933D02*
X0236800Y0248933D01*
X0236800Y0228933D01*
X0241800Y0228933D01*
X0243060Y0230193D01*
X0243060Y0233791D01*
X0250540Y0233791D02*
X0250800Y0224531D01*
X0246800Y0220531D01*
X0246800Y0195933D01*
X0249800Y0192933D01*
X0365800Y0192933D01*
X0368800Y0195933D01*
X0368800Y0216933D01*
X0372312Y0220445D01*
X0372312Y0223933D01*
X0401800Y0223933D01*
X0401800Y0223421D01*
X0401800Y0223933D02*
X0401800Y0240933D01*
X0386800Y0258933D02*
X0371800Y0258933D01*
X0371800Y0249445D01*
X0372312Y0248933D01*
X0372312Y0223933D01*
X0361288Y0223933D02*
X0342863Y0223933D01*
X0336800Y0217870D01*
X0312863Y0217870D01*
X0311800Y0218933D01*
X0311800Y0224933D01*
X0311800Y0244933D02*
X0311800Y0258933D01*
X0301800Y0258933D02*
X0311800Y0268933D01*
X0335737Y0268933D01*
X0336800Y0269996D01*
X0337863Y0268933D01*
X0346800Y0268933D01*
X0349831Y0271965D01*
X0351800Y0268933D02*
X0352863Y0269996D01*
X0351800Y0268933D02*
X0351800Y0258933D01*
X0361800Y0258933D01*
X0361800Y0249445D01*
X0361288Y0248933D01*
X0361288Y0223933D01*
X0386800Y0258933D02*
X0386800Y0268933D01*
X0381800Y0273933D01*
X0380737Y0277870D02*
X0381800Y0278933D01*
X0381800Y0283933D01*
X0351800Y0283933D01*
X0351800Y0278933D01*
X0352863Y0277870D01*
X0346800Y0277933D02*
X0300800Y0277933D01*
X0298800Y0279933D01*
X0298800Y0297933D01*
X0285800Y0297933D01*
X0280737Y0292870D01*
X0271800Y0292870D01*
X0271737Y0292933D01*
X0263800Y0292933D01*
X0263800Y0283933D01*
X0270800Y0272933D02*
X0270800Y0262933D01*
X0271060Y0262673D01*
X0277469Y0262673D01*
X0286131Y0258933D02*
X0301800Y0258933D01*
X0270800Y0272933D02*
X0240800Y0272933D01*
X0263800Y0292933D02*
X0260800Y0295933D01*
X0260800Y0309933D01*
X0260737Y0309996D01*
X0251800Y0309996D01*
X0286800Y0328421D02*
X0286800Y0338933D01*
X0274831Y0341965D02*
X0271800Y0344996D01*
X0270737Y0344996D01*
X0261800Y0343933D01*
X0251800Y0343933D01*
X0236131Y0343933D01*
X0227469Y0347673D02*
X0226209Y0348933D01*
X0221800Y0348933D01*
X0221800Y0370933D01*
X0200800Y0370933D01*
X0199800Y0371933D01*
X0199300Y0371433D01*
X0197824Y0371433D01*
X0198324Y0375933D02*
X0207800Y0375933D01*
X0207800Y0384445D01*
X0241800Y0384445D01*
X0256800Y0384445D01*
X0242312Y0383933D01*
X0323800Y0383933D01*
X0316524Y0358933D02*
X0411800Y0358933D01*
X0411800Y0293933D01*
X0421800Y0273933D01*
X0421800Y0178933D01*
X0385800Y0178933D01*
X0385800Y0188933D02*
X0416800Y0188933D01*
X0416800Y0273933D01*
X0414831Y0275902D01*
X0387831Y0275902D01*
X0387800Y0275933D01*
X0381800Y0283933D02*
X0391800Y0293933D01*
X0411800Y0293933D01*
X0343800Y0283933D02*
X0312800Y0283933D01*
X0312800Y0298445D01*
X0312312Y0298933D01*
X0312312Y0318933D01*
X0321800Y0318933D01*
X0321800Y0343933D01*
X0321800Y0353933D02*
X0341800Y0353933D01*
X0341800Y0318933D01*
X0301288Y0318933D02*
X0301288Y0298933D01*
X0300288Y0297933D01*
X0298800Y0297933D01*
X0301288Y0318933D02*
X0293139Y0322083D01*
X0286800Y0328421D01*
X0256800Y0358933D02*
X0251800Y0353933D01*
X0256800Y0358933D02*
X0256800Y0373421D01*
X0241800Y0373421D01*
X0242288Y0372933D01*
X0279800Y0372933D01*
X0198324Y0375933D02*
X0197824Y0376433D01*
X0111800Y0283933D02*
X0096300Y0283933D01*
X0111800Y0283933D02*
X0111800Y0258933D01*
X0111800Y0116933D01*
X0126800Y0083933D02*
X0146800Y0103933D01*
X0126800Y0083933D02*
X0118800Y0083933D01*
X0097800Y0083933D01*
X0097800Y0226933D01*
X0095800Y0228933D01*
X0067863Y0228933D01*
X0067863Y0238870D01*
X0067800Y0238933D01*
X0025800Y0238933D01*
X0024800Y0239933D01*
X0024800Y0254933D01*
X0031816Y0254933D01*
X0032469Y0255587D01*
X0032469Y0262280D02*
X0018454Y0262280D01*
X0016800Y0263933D01*
X0016800Y0229996D01*
X0015737Y0228933D01*
X0015737Y0208933D01*
X0067863Y0208933D02*
X0068800Y0207996D01*
X0068800Y0069933D01*
X0166800Y0082933D02*
X0166800Y0083933D01*
X0111800Y0258933D02*
X0101800Y0258933D01*
X0066800Y0283933D02*
X0051800Y0283933D01*
X0051800Y0258933D01*
X0061800Y0258933D01*
X0041131Y0258933D01*
D11*
X0251800Y0343933D03*
X0251800Y0353933D03*
X0311800Y0268933D03*
X0311800Y0258933D03*
D12*
X0310619Y0258933D02*
X0310621Y0259002D01*
X0310627Y0259070D01*
X0310637Y0259138D01*
X0310651Y0259205D01*
X0310669Y0259272D01*
X0310690Y0259337D01*
X0310716Y0259401D01*
X0310745Y0259463D01*
X0310777Y0259523D01*
X0310813Y0259582D01*
X0310853Y0259638D01*
X0310895Y0259692D01*
X0310941Y0259743D01*
X0310990Y0259792D01*
X0311041Y0259838D01*
X0311095Y0259880D01*
X0311151Y0259920D01*
X0311209Y0259956D01*
X0311270Y0259988D01*
X0311332Y0260017D01*
X0311396Y0260043D01*
X0311461Y0260064D01*
X0311528Y0260082D01*
X0311595Y0260096D01*
X0311663Y0260106D01*
X0311731Y0260112D01*
X0311800Y0260114D01*
X0311869Y0260112D01*
X0311937Y0260106D01*
X0312005Y0260096D01*
X0312072Y0260082D01*
X0312139Y0260064D01*
X0312204Y0260043D01*
X0312268Y0260017D01*
X0312330Y0259988D01*
X0312390Y0259956D01*
X0312449Y0259920D01*
X0312505Y0259880D01*
X0312559Y0259838D01*
X0312610Y0259792D01*
X0312659Y0259743D01*
X0312705Y0259692D01*
X0312747Y0259638D01*
X0312787Y0259582D01*
X0312823Y0259523D01*
X0312855Y0259463D01*
X0312884Y0259401D01*
X0312910Y0259337D01*
X0312931Y0259272D01*
X0312949Y0259205D01*
X0312963Y0259138D01*
X0312973Y0259070D01*
X0312979Y0259002D01*
X0312981Y0258933D01*
X0312979Y0258864D01*
X0312973Y0258796D01*
X0312963Y0258728D01*
X0312949Y0258661D01*
X0312931Y0258594D01*
X0312910Y0258529D01*
X0312884Y0258465D01*
X0312855Y0258403D01*
X0312823Y0258342D01*
X0312787Y0258284D01*
X0312747Y0258228D01*
X0312705Y0258174D01*
X0312659Y0258123D01*
X0312610Y0258074D01*
X0312559Y0258028D01*
X0312505Y0257986D01*
X0312449Y0257946D01*
X0312391Y0257910D01*
X0312330Y0257878D01*
X0312268Y0257849D01*
X0312204Y0257823D01*
X0312139Y0257802D01*
X0312072Y0257784D01*
X0312005Y0257770D01*
X0311937Y0257760D01*
X0311869Y0257754D01*
X0311800Y0257752D01*
X0311731Y0257754D01*
X0311663Y0257760D01*
X0311595Y0257770D01*
X0311528Y0257784D01*
X0311461Y0257802D01*
X0311396Y0257823D01*
X0311332Y0257849D01*
X0311270Y0257878D01*
X0311209Y0257910D01*
X0311151Y0257946D01*
X0311095Y0257986D01*
X0311041Y0258028D01*
X0310990Y0258074D01*
X0310941Y0258123D01*
X0310895Y0258174D01*
X0310853Y0258228D01*
X0310813Y0258284D01*
X0310777Y0258342D01*
X0310745Y0258403D01*
X0310716Y0258465D01*
X0310690Y0258529D01*
X0310669Y0258594D01*
X0310651Y0258661D01*
X0310637Y0258728D01*
X0310627Y0258796D01*
X0310621Y0258864D01*
X0310619Y0258933D01*
X0310619Y0268933D02*
X0310621Y0269002D01*
X0310627Y0269070D01*
X0310637Y0269138D01*
X0310651Y0269205D01*
X0310669Y0269272D01*
X0310690Y0269337D01*
X0310716Y0269401D01*
X0310745Y0269463D01*
X0310777Y0269523D01*
X0310813Y0269582D01*
X0310853Y0269638D01*
X0310895Y0269692D01*
X0310941Y0269743D01*
X0310990Y0269792D01*
X0311041Y0269838D01*
X0311095Y0269880D01*
X0311151Y0269920D01*
X0311209Y0269956D01*
X0311270Y0269988D01*
X0311332Y0270017D01*
X0311396Y0270043D01*
X0311461Y0270064D01*
X0311528Y0270082D01*
X0311595Y0270096D01*
X0311663Y0270106D01*
X0311731Y0270112D01*
X0311800Y0270114D01*
X0311869Y0270112D01*
X0311937Y0270106D01*
X0312005Y0270096D01*
X0312072Y0270082D01*
X0312139Y0270064D01*
X0312204Y0270043D01*
X0312268Y0270017D01*
X0312330Y0269988D01*
X0312390Y0269956D01*
X0312449Y0269920D01*
X0312505Y0269880D01*
X0312559Y0269838D01*
X0312610Y0269792D01*
X0312659Y0269743D01*
X0312705Y0269692D01*
X0312747Y0269638D01*
X0312787Y0269582D01*
X0312823Y0269523D01*
X0312855Y0269463D01*
X0312884Y0269401D01*
X0312910Y0269337D01*
X0312931Y0269272D01*
X0312949Y0269205D01*
X0312963Y0269138D01*
X0312973Y0269070D01*
X0312979Y0269002D01*
X0312981Y0268933D01*
X0312979Y0268864D01*
X0312973Y0268796D01*
X0312963Y0268728D01*
X0312949Y0268661D01*
X0312931Y0268594D01*
X0312910Y0268529D01*
X0312884Y0268465D01*
X0312855Y0268403D01*
X0312823Y0268342D01*
X0312787Y0268284D01*
X0312747Y0268228D01*
X0312705Y0268174D01*
X0312659Y0268123D01*
X0312610Y0268074D01*
X0312559Y0268028D01*
X0312505Y0267986D01*
X0312449Y0267946D01*
X0312391Y0267910D01*
X0312330Y0267878D01*
X0312268Y0267849D01*
X0312204Y0267823D01*
X0312139Y0267802D01*
X0312072Y0267784D01*
X0312005Y0267770D01*
X0311937Y0267760D01*
X0311869Y0267754D01*
X0311800Y0267752D01*
X0311731Y0267754D01*
X0311663Y0267760D01*
X0311595Y0267770D01*
X0311528Y0267784D01*
X0311461Y0267802D01*
X0311396Y0267823D01*
X0311332Y0267849D01*
X0311270Y0267878D01*
X0311209Y0267910D01*
X0311151Y0267946D01*
X0311095Y0267986D01*
X0311041Y0268028D01*
X0310990Y0268074D01*
X0310941Y0268123D01*
X0310895Y0268174D01*
X0310853Y0268228D01*
X0310813Y0268284D01*
X0310777Y0268342D01*
X0310745Y0268403D01*
X0310716Y0268465D01*
X0310690Y0268529D01*
X0310669Y0268594D01*
X0310651Y0268661D01*
X0310637Y0268728D01*
X0310627Y0268796D01*
X0310621Y0268864D01*
X0310619Y0268933D01*
X0250619Y0343933D02*
X0250621Y0344002D01*
X0250627Y0344070D01*
X0250637Y0344138D01*
X0250651Y0344205D01*
X0250669Y0344272D01*
X0250690Y0344337D01*
X0250716Y0344401D01*
X0250745Y0344463D01*
X0250777Y0344523D01*
X0250813Y0344582D01*
X0250853Y0344638D01*
X0250895Y0344692D01*
X0250941Y0344743D01*
X0250990Y0344792D01*
X0251041Y0344838D01*
X0251095Y0344880D01*
X0251151Y0344920D01*
X0251209Y0344956D01*
X0251270Y0344988D01*
X0251332Y0345017D01*
X0251396Y0345043D01*
X0251461Y0345064D01*
X0251528Y0345082D01*
X0251595Y0345096D01*
X0251663Y0345106D01*
X0251731Y0345112D01*
X0251800Y0345114D01*
X0251869Y0345112D01*
X0251937Y0345106D01*
X0252005Y0345096D01*
X0252072Y0345082D01*
X0252139Y0345064D01*
X0252204Y0345043D01*
X0252268Y0345017D01*
X0252330Y0344988D01*
X0252390Y0344956D01*
X0252449Y0344920D01*
X0252505Y0344880D01*
X0252559Y0344838D01*
X0252610Y0344792D01*
X0252659Y0344743D01*
X0252705Y0344692D01*
X0252747Y0344638D01*
X0252787Y0344582D01*
X0252823Y0344523D01*
X0252855Y0344463D01*
X0252884Y0344401D01*
X0252910Y0344337D01*
X0252931Y0344272D01*
X0252949Y0344205D01*
X0252963Y0344138D01*
X0252973Y0344070D01*
X0252979Y0344002D01*
X0252981Y0343933D01*
X0252979Y0343864D01*
X0252973Y0343796D01*
X0252963Y0343728D01*
X0252949Y0343661D01*
X0252931Y0343594D01*
X0252910Y0343529D01*
X0252884Y0343465D01*
X0252855Y0343403D01*
X0252823Y0343342D01*
X0252787Y0343284D01*
X0252747Y0343228D01*
X0252705Y0343174D01*
X0252659Y0343123D01*
X0252610Y0343074D01*
X0252559Y0343028D01*
X0252505Y0342986D01*
X0252449Y0342946D01*
X0252391Y0342910D01*
X0252330Y0342878D01*
X0252268Y0342849D01*
X0252204Y0342823D01*
X0252139Y0342802D01*
X0252072Y0342784D01*
X0252005Y0342770D01*
X0251937Y0342760D01*
X0251869Y0342754D01*
X0251800Y0342752D01*
X0251731Y0342754D01*
X0251663Y0342760D01*
X0251595Y0342770D01*
X0251528Y0342784D01*
X0251461Y0342802D01*
X0251396Y0342823D01*
X0251332Y0342849D01*
X0251270Y0342878D01*
X0251209Y0342910D01*
X0251151Y0342946D01*
X0251095Y0342986D01*
X0251041Y0343028D01*
X0250990Y0343074D01*
X0250941Y0343123D01*
X0250895Y0343174D01*
X0250853Y0343228D01*
X0250813Y0343284D01*
X0250777Y0343342D01*
X0250745Y0343403D01*
X0250716Y0343465D01*
X0250690Y0343529D01*
X0250669Y0343594D01*
X0250651Y0343661D01*
X0250637Y0343728D01*
X0250627Y0343796D01*
X0250621Y0343864D01*
X0250619Y0343933D01*
X0250619Y0353933D02*
X0250621Y0354002D01*
X0250627Y0354070D01*
X0250637Y0354138D01*
X0250651Y0354205D01*
X0250669Y0354272D01*
X0250690Y0354337D01*
X0250716Y0354401D01*
X0250745Y0354463D01*
X0250777Y0354523D01*
X0250813Y0354582D01*
X0250853Y0354638D01*
X0250895Y0354692D01*
X0250941Y0354743D01*
X0250990Y0354792D01*
X0251041Y0354838D01*
X0251095Y0354880D01*
X0251151Y0354920D01*
X0251209Y0354956D01*
X0251270Y0354988D01*
X0251332Y0355017D01*
X0251396Y0355043D01*
X0251461Y0355064D01*
X0251528Y0355082D01*
X0251595Y0355096D01*
X0251663Y0355106D01*
X0251731Y0355112D01*
X0251800Y0355114D01*
X0251869Y0355112D01*
X0251937Y0355106D01*
X0252005Y0355096D01*
X0252072Y0355082D01*
X0252139Y0355064D01*
X0252204Y0355043D01*
X0252268Y0355017D01*
X0252330Y0354988D01*
X0252390Y0354956D01*
X0252449Y0354920D01*
X0252505Y0354880D01*
X0252559Y0354838D01*
X0252610Y0354792D01*
X0252659Y0354743D01*
X0252705Y0354692D01*
X0252747Y0354638D01*
X0252787Y0354582D01*
X0252823Y0354523D01*
X0252855Y0354463D01*
X0252884Y0354401D01*
X0252910Y0354337D01*
X0252931Y0354272D01*
X0252949Y0354205D01*
X0252963Y0354138D01*
X0252973Y0354070D01*
X0252979Y0354002D01*
X0252981Y0353933D01*
X0252979Y0353864D01*
X0252973Y0353796D01*
X0252963Y0353728D01*
X0252949Y0353661D01*
X0252931Y0353594D01*
X0252910Y0353529D01*
X0252884Y0353465D01*
X0252855Y0353403D01*
X0252823Y0353342D01*
X0252787Y0353284D01*
X0252747Y0353228D01*
X0252705Y0353174D01*
X0252659Y0353123D01*
X0252610Y0353074D01*
X0252559Y0353028D01*
X0252505Y0352986D01*
X0252449Y0352946D01*
X0252391Y0352910D01*
X0252330Y0352878D01*
X0252268Y0352849D01*
X0252204Y0352823D01*
X0252139Y0352802D01*
X0252072Y0352784D01*
X0252005Y0352770D01*
X0251937Y0352760D01*
X0251869Y0352754D01*
X0251800Y0352752D01*
X0251731Y0352754D01*
X0251663Y0352760D01*
X0251595Y0352770D01*
X0251528Y0352784D01*
X0251461Y0352802D01*
X0251396Y0352823D01*
X0251332Y0352849D01*
X0251270Y0352878D01*
X0251209Y0352910D01*
X0251151Y0352946D01*
X0251095Y0352986D01*
X0251041Y0353028D01*
X0250990Y0353074D01*
X0250941Y0353123D01*
X0250895Y0353174D01*
X0250853Y0353228D01*
X0250813Y0353284D01*
X0250777Y0353342D01*
X0250745Y0353403D01*
X0250716Y0353465D01*
X0250690Y0353529D01*
X0250669Y0353594D01*
X0250651Y0353661D01*
X0250637Y0353728D01*
X0250627Y0353796D01*
X0250621Y0353864D01*
X0250619Y0353933D01*
D13*
X0236131Y0343933D03*
X0227469Y0340193D03*
X0227469Y0347673D03*
X0277469Y0262673D03*
X0277469Y0255193D03*
X0286131Y0258933D03*
D14*
X0041131Y0258933D03*
X0032469Y0255587D03*
X0032469Y0262280D03*
D15*
X0015737Y0228933D03*
X0015737Y0208933D03*
X0067863Y0208933D03*
X0067863Y0228933D03*
X0201737Y0208933D03*
X0253863Y0208933D03*
X0251800Y0257870D03*
X0271800Y0292870D03*
X0251800Y0309996D03*
X0271800Y0344996D03*
X0336800Y0269996D03*
X0336800Y0217870D03*
D16*
X0096300Y0283933D03*
X0066800Y0283933D03*
X0066800Y0362633D03*
X0066800Y0382333D03*
X0096300Y0382333D03*
X0096300Y0362633D03*
D17*
X0175776Y0361433D03*
X0175776Y0366433D03*
X0175776Y0371433D03*
X0175776Y0376433D03*
X0197824Y0376433D03*
X0197824Y0371433D03*
X0197824Y0366433D03*
X0197824Y0361433D03*
D18*
X0293139Y0347870D03*
X0293139Y0345902D03*
X0293139Y0343933D03*
X0293139Y0341965D03*
X0293139Y0339996D03*
X0310461Y0339996D03*
X0310461Y0341965D03*
X0310461Y0343933D03*
X0310461Y0345902D03*
X0310461Y0347870D03*
X0358139Y0277870D03*
X0358139Y0275902D03*
X0358139Y0273933D03*
X0358139Y0271965D03*
X0358139Y0269996D03*
X0375461Y0269996D03*
X0375461Y0271965D03*
X0375461Y0273933D03*
X0375461Y0275902D03*
X0375461Y0277870D03*
D19*
X0382400Y0208933D02*
X0389200Y0208933D01*
X0389200Y0198933D02*
X0382400Y0198933D01*
X0382400Y0188933D02*
X0389200Y0188933D01*
X0389200Y0178933D02*
X0382400Y0178933D01*
X0382400Y0168933D02*
X0389200Y0168933D01*
X0389200Y0158933D02*
X0382400Y0158933D01*
X0382400Y0148933D02*
X0389200Y0148933D01*
X0389200Y0138933D02*
X0382400Y0138933D01*
X0382400Y0128933D02*
X0389200Y0128933D01*
X0389200Y0118933D02*
X0382400Y0118933D01*
X0382400Y0108933D02*
X0389200Y0108933D01*
X0389200Y0098933D02*
X0382400Y0098933D01*
X0382400Y0088933D02*
X0389200Y0088933D01*
D20*
X0246800Y0083933D03*
X0166800Y0083933D03*
X0118800Y0083933D03*
X0111800Y0116933D03*
X0401800Y0240933D03*
X0016800Y0348933D03*
X0016800Y0378933D03*
D21*
X0301288Y0318933D03*
X0312312Y0318933D03*
X0312312Y0298933D03*
X0301288Y0298933D03*
X0361288Y0248933D03*
X0372312Y0248933D03*
X0372312Y0223933D03*
X0361288Y0223933D03*
D22*
X0256800Y0373421D03*
X0256800Y0384445D03*
X0241800Y0384445D03*
X0241800Y0373421D03*
D23*
X0101800Y0258933D03*
X0061800Y0258933D03*
D24*
X0243060Y0244075D03*
X0246800Y0244075D03*
X0250540Y0244075D03*
X0250540Y0233791D03*
X0243060Y0233791D03*
D25*
X0207300Y0187933D02*
X0200300Y0187933D01*
X0200300Y0167933D02*
X0207300Y0167933D01*
X0207300Y0125933D02*
X0200300Y0125933D01*
X0200300Y0105933D02*
X0207300Y0105933D01*
X0175776Y0361433D02*
X0174276Y0362933D01*
X0171800Y0362933D01*
X0173276Y0373933D02*
X0166800Y0373933D01*
X0173276Y0373933D02*
X0175776Y0376433D01*
D26*
X0161800Y0388933D02*
X0111800Y0388933D01*
X0105200Y0382333D01*
X0096300Y0382333D01*
X0066800Y0362633D02*
X0065500Y0363933D01*
X0041800Y0363933D01*
X0026800Y0378933D01*
X0016800Y0378933D01*
X0016800Y0348933D02*
X0016800Y0328933D01*
X0026800Y0318933D01*
X0131800Y0318933D01*
X0146800Y0303933D01*
X0146800Y0103933D01*
X0166800Y0083933D01*
X0203800Y0105933D02*
X0225800Y0083933D01*
X0246800Y0083933D01*
X0203800Y0187933D02*
X0201737Y0189996D01*
X0201737Y0208933D01*
X0201737Y0221996D01*
X0187800Y0235933D01*
X0187800Y0332933D01*
X0168800Y0351933D01*
D27*
X0057800Y0041933D02*
X0043800Y0027933D01*
X0045800Y0020933D02*
X0143800Y0020933D01*
X0131800Y0025933D02*
X0143800Y0037933D01*
X0131800Y0025933D02*
X0130800Y0025933D01*
X0116800Y0039933D01*
X0102800Y0025933D01*
X0087800Y0040933D01*
X0073800Y0026933D01*
X0072800Y0026933D01*
X0057800Y0041933D01*
X0310800Y0028933D02*
X0322800Y0040933D01*
X0334800Y0028933D01*
X0335800Y0028933D01*
X0349800Y0042933D01*
X0364800Y0027933D01*
X0379800Y0042933D01*
X0393800Y0028933D01*
X0400800Y0019933D02*
X0310800Y0019933D01*
X0475800Y0091933D02*
X0489800Y0077933D01*
X0502800Y0077933D02*
X0502800Y0174933D01*
X0488800Y0158933D02*
X0474800Y0144933D01*
X0489800Y0129933D01*
X0476800Y0116933D01*
X0488800Y0104933D01*
X0475800Y0091933D01*
X0488800Y0158933D02*
X0473800Y0173933D01*
X0358139Y0269996D02*
X0352863Y0269996D01*
X0349831Y0271965D02*
X0358139Y0271965D01*
X0358139Y0273933D02*
X0350800Y0273933D01*
X0346800Y0277933D01*
X0352863Y0277870D02*
X0358139Y0277870D01*
X0375461Y0277870D02*
X0380737Y0277870D01*
X0381800Y0273933D02*
X0375461Y0273933D01*
X0375461Y0275902D02*
X0375493Y0275933D01*
X0387800Y0275933D01*
X0466800Y0316933D02*
X0479800Y0303933D01*
X0496800Y0301933D02*
X0496800Y0385933D01*
X0481800Y0371933D02*
X0463800Y0353933D01*
X0483800Y0333933D01*
X0466800Y0316933D01*
X0481800Y0371933D02*
X0460800Y0392933D01*
X0321800Y0353933D02*
X0321800Y0349933D01*
X0317800Y0345933D01*
X0310493Y0345933D01*
X0310461Y0345902D01*
X0310461Y0347870D02*
X0310524Y0347933D01*
X0314800Y0347933D01*
X0316524Y0349657D01*
X0316524Y0358933D01*
X0321800Y0343933D02*
X0310461Y0343933D01*
X0293139Y0343933D02*
X0286800Y0343933D01*
X0286800Y0347933D01*
X0293076Y0347933D01*
X0293139Y0347870D01*
X0293139Y0341965D02*
X0274831Y0341965D01*
X0286800Y0338933D02*
X0287863Y0339996D01*
X0293139Y0339996D01*
D28*
X0279800Y0372933D03*
X0323800Y0383933D03*
X0343800Y0283933D03*
X0263800Y0283933D03*
X0221800Y0264933D03*
X0277800Y0224933D03*
D29*
X0341800Y0318933D03*
D30*
X0173800Y0358933D02*
X0172800Y0357933D01*
X0168800Y0357933D01*
X0173800Y0358933D02*
X0173800Y0360933D01*
X0171800Y0362933D01*
X0166800Y0373933D02*
X0171800Y0378933D01*
D31*
X0168800Y0357933D02*
X0168800Y0351933D01*
D32*
X0171800Y0378933D02*
X0161800Y0378933D01*
X0161800Y0388933D01*
M02*
