G75*
%MOIN*%
%OFA0B0*%
%FSLAX25Y25*%
%IPPOS*%
%LPD*%
%AMOC8*
5,1,8,0,0,1.08239X$1,22.5*
%
%ADD10C,0.18100*%
%ADD11C,0.00512*%
%ADD12C,0.00600*%
%ADD13C,0.10000*%
%ADD14C,0.07000*%
%ADD15OC8,0.07100*%
%ADD16C,0.03162*%
%ADD17R,0.06312X0.04737*%
%ADD18R,0.04343X0.03556*%
%ADD19OC8,0.06400*%
%ADD20C,0.08600*%
%ADD21R,0.07690X0.03359*%
%ADD22R,0.06509X0.01981*%
%ADD23C,0.06800*%
%ADD24OC8,0.15800*%
%ADD25R,0.07099X0.07887*%
%ADD26R,0.07887X0.07099*%
%ADD27C,0.07400*%
%ADD28R,0.03162X0.05524*%
%ADD29C,0.07800*%
%ADD30R,0.04800X0.04800*%
%ADD31C,0.04800*%
D10*
X0146800Y0103933D02*
X0146800Y0303933D01*
X0131800Y0318933D01*
X0026800Y0318933D01*
X0016800Y0328933D01*
X0016800Y0348933D01*
X0041800Y0363933D02*
X0066800Y0363933D01*
X0041800Y0363933D02*
X0026800Y0378933D01*
X0016800Y0378933D01*
X0096800Y0383933D02*
X0106800Y0383933D01*
X0111800Y0388933D01*
X0161800Y0388933D01*
X0168800Y0351933D02*
X0187800Y0332933D01*
X0187800Y0235933D01*
X0201800Y0221933D01*
X0201800Y0208933D01*
X0201800Y0207933D02*
X0201800Y0190933D01*
X0203800Y0187933D01*
X0203800Y0105933D02*
X0225800Y0083933D01*
X0246800Y0083933D01*
X0166800Y0083933D02*
X0146800Y0103933D01*
D11*
X0001800Y0063933D02*
X0001800Y0001256D01*
X0002056Y0008933D02*
X0012036Y0007909D01*
X0012036Y0007676D02*
X0002056Y0008933D01*
X0012036Y0009957D01*
X0012036Y0010190D02*
X0012036Y0007676D01*
X0012036Y0008421D02*
X0002056Y0008933D01*
X0012036Y0009445D01*
X0012036Y0010190D02*
X0002056Y0008933D01*
X0431544Y0008933D01*
X0421564Y0007909D01*
X0421564Y0007676D02*
X0431544Y0008933D01*
X0421564Y0009957D01*
X0421564Y0010190D02*
X0421564Y0007676D01*
X0421564Y0008421D02*
X0431544Y0008933D01*
X0421564Y0009445D01*
X0421564Y0010190D02*
X0431544Y0008933D01*
X0431800Y0001256D02*
X0431800Y0063933D01*
X0569477Y0063933D01*
X0561800Y0064189D02*
X0562824Y0074169D01*
X0563057Y0074169D02*
X0561800Y0064189D01*
X0560776Y0074169D01*
X0560543Y0074169D02*
X0563057Y0074169D01*
X0562312Y0074169D02*
X0561800Y0064189D01*
X0561288Y0074169D01*
X0560543Y0074169D02*
X0561800Y0064189D01*
X0561800Y0403677D01*
X0562824Y0393697D01*
X0563057Y0393697D02*
X0561800Y0403677D01*
X0560776Y0393697D01*
X0560543Y0393697D02*
X0563057Y0393697D01*
X0562312Y0393697D02*
X0561800Y0403677D01*
X0561288Y0393697D01*
X0560543Y0393697D02*
X0561800Y0403677D01*
X0569477Y0403933D02*
X0431800Y0403933D01*
D12*
X0552833Y0248535D02*
X0553900Y0246400D01*
X0556035Y0244264D01*
X0556035Y0247467D01*
X0557103Y0248535D01*
X0558171Y0248535D01*
X0559238Y0247467D01*
X0559238Y0245332D01*
X0558171Y0244264D01*
X0556035Y0244264D01*
X0554968Y0242089D02*
X0556035Y0241022D01*
X0557103Y0242089D01*
X0558171Y0242089D01*
X0559238Y0241022D01*
X0559238Y0238887D01*
X0558171Y0237819D01*
X0558171Y0235664D02*
X0559238Y0235664D01*
X0559238Y0234596D01*
X0558171Y0234596D01*
X0558171Y0235664D01*
X0558171Y0232421D02*
X0557103Y0232421D01*
X0556035Y0231353D01*
X0556035Y0228151D01*
X0558171Y0228151D01*
X0559238Y0229218D01*
X0559238Y0231353D01*
X0558171Y0232421D01*
X0553900Y0230286D02*
X0556035Y0228151D01*
X0554968Y0225976D02*
X0556035Y0224908D01*
X0556035Y0222773D01*
X0554968Y0221705D01*
X0553900Y0221705D01*
X0552833Y0222773D01*
X0552833Y0224908D01*
X0553900Y0225976D01*
X0554968Y0225976D01*
X0556035Y0224908D02*
X0557103Y0225976D01*
X0558171Y0225976D01*
X0559238Y0224908D01*
X0559238Y0222773D01*
X0558171Y0221705D01*
X0557103Y0221705D01*
X0556035Y0222773D01*
X0553900Y0230286D02*
X0552833Y0232421D01*
X0553900Y0237819D02*
X0552833Y0238887D01*
X0552833Y0241022D01*
X0553900Y0242089D01*
X0554968Y0242089D01*
X0556035Y0241022D02*
X0556035Y0239954D01*
X0235071Y0016833D02*
X0235071Y0015765D01*
X0230801Y0011495D01*
X0235071Y0011495D01*
X0228626Y0011495D02*
X0224355Y0011495D01*
X0228626Y0015765D01*
X0228626Y0016833D01*
X0227558Y0017900D01*
X0225423Y0017900D01*
X0224355Y0016833D01*
X0222200Y0012562D02*
X0222200Y0011495D01*
X0221132Y0011495D01*
X0221132Y0012562D01*
X0222200Y0012562D01*
X0218957Y0012562D02*
X0218957Y0016833D01*
X0217890Y0017900D01*
X0215755Y0017900D01*
X0214687Y0016833D01*
X0214687Y0015765D01*
X0215755Y0014698D01*
X0218957Y0014698D01*
X0218957Y0012562D02*
X0217890Y0011495D01*
X0215755Y0011495D01*
X0214687Y0012562D01*
X0212512Y0012562D02*
X0211444Y0011495D01*
X0209309Y0011495D01*
X0208241Y0012562D01*
X0212512Y0016833D01*
X0212512Y0012562D01*
X0208241Y0012562D02*
X0208241Y0016833D01*
X0209309Y0017900D01*
X0211444Y0017900D01*
X0212512Y0016833D01*
X0206066Y0011495D02*
X0201796Y0011495D01*
X0203931Y0011495D02*
X0203931Y0017900D01*
X0201796Y0015765D01*
X0230801Y0016833D02*
X0231868Y0017900D01*
X0234003Y0017900D01*
X0235071Y0016833D01*
D13*
X0166800Y0373933D02*
X0161800Y0378933D01*
X0171800Y0378933D01*
D14*
X0175800Y0376933D02*
X0171800Y0373933D01*
X0175800Y0373933D01*
X0171800Y0363933D02*
X0171800Y0361933D01*
X0166800Y0361933D01*
X0164800Y0358933D01*
X0173800Y0356933D01*
X0175800Y0362933D01*
D15*
X0251800Y0353933D03*
X0251800Y0343933D03*
X0311800Y0268933D03*
X0311800Y0258933D03*
D16*
X0311800Y0258933D03*
X0311800Y0268933D03*
X0251800Y0343933D03*
X0251800Y0353933D03*
D17*
X0236131Y0343933D03*
X0227469Y0340193D03*
X0227469Y0347673D03*
X0277469Y0262673D03*
X0277469Y0255193D03*
X0286131Y0258933D03*
D18*
X0041131Y0258933D03*
X0032469Y0255587D03*
X0032469Y0262280D03*
D19*
X0015737Y0228933D03*
X0015737Y0208933D03*
X0067863Y0208933D03*
X0067863Y0228933D03*
X0201737Y0208933D03*
X0253863Y0208933D03*
X0251800Y0257870D03*
X0271800Y0292870D03*
X0251800Y0309996D03*
X0271800Y0344996D03*
X0336800Y0269996D03*
X0336800Y0217870D03*
D20*
X0096300Y0283933D03*
X0066800Y0283933D03*
X0066800Y0362633D03*
X0066800Y0382333D03*
X0096300Y0382333D03*
X0096300Y0362633D03*
D21*
X0175776Y0361433D03*
X0175776Y0366433D03*
X0175776Y0371433D03*
X0175776Y0376433D03*
X0197824Y0376433D03*
X0197824Y0371433D03*
X0197824Y0366433D03*
X0197824Y0361433D03*
D22*
X0293139Y0347870D03*
X0293139Y0345902D03*
X0293139Y0343933D03*
X0293139Y0341965D03*
X0293139Y0339996D03*
X0310461Y0339996D03*
X0310461Y0341965D03*
X0310461Y0343933D03*
X0310461Y0345902D03*
X0310461Y0347870D03*
X0358139Y0277870D03*
X0358139Y0275902D03*
X0358139Y0273933D03*
X0358139Y0271965D03*
X0358139Y0269996D03*
X0375461Y0269996D03*
X0375461Y0271965D03*
X0375461Y0273933D03*
X0375461Y0275902D03*
X0375461Y0277870D03*
D23*
X0382800Y0208933D02*
X0388800Y0208933D01*
X0388800Y0198933D02*
X0382800Y0198933D01*
X0382800Y0188933D02*
X0388800Y0188933D01*
X0388800Y0178933D02*
X0382800Y0178933D01*
X0382800Y0168933D02*
X0388800Y0168933D01*
X0388800Y0158933D02*
X0382800Y0158933D01*
X0382800Y0148933D02*
X0388800Y0148933D01*
X0388800Y0138933D02*
X0382800Y0138933D01*
X0382800Y0128933D02*
X0388800Y0128933D01*
X0388800Y0118933D02*
X0382800Y0118933D01*
X0382800Y0108933D02*
X0388800Y0108933D01*
X0388800Y0098933D02*
X0382800Y0098933D01*
X0382800Y0088933D02*
X0388800Y0088933D01*
D24*
X0246800Y0083933D03*
X0166800Y0083933D03*
X0118800Y0083933D03*
X0111800Y0116933D03*
X0401800Y0240933D03*
X0016800Y0348933D03*
X0016800Y0378933D03*
D25*
X0301288Y0318933D03*
X0312312Y0318933D03*
X0312312Y0298933D03*
X0301288Y0298933D03*
X0361288Y0248933D03*
X0372312Y0248933D03*
X0372312Y0223933D03*
X0361288Y0223933D03*
D26*
X0256800Y0373421D03*
X0256800Y0384445D03*
X0241800Y0384445D03*
X0241800Y0373421D03*
D27*
X0101800Y0258933D03*
X0061800Y0258933D03*
D28*
X0243060Y0244075D03*
X0246800Y0244075D03*
X0250540Y0244075D03*
X0250540Y0233791D03*
X0243060Y0233791D03*
D29*
X0207300Y0187933D02*
X0200300Y0187933D01*
X0200300Y0167933D02*
X0207300Y0167933D01*
X0207300Y0125933D02*
X0200300Y0125933D01*
X0200300Y0105933D02*
X0207300Y0105933D01*
D30*
X0277800Y0224933D03*
X0221800Y0264933D03*
X0263800Y0283933D03*
X0343800Y0283933D03*
X0279800Y0372933D03*
X0323800Y0383933D03*
D31*
X0341800Y0318933D03*
M02*
