G75*
%MOIN*%
%OFA0B0*%
%FSLAX25Y25*%
%IPPOS*%
%LPD*%
%AMOC8*
5,1,8,0,0,1.08239X$1,22.5*
%
%ADD10OC8,0.07100*%
%ADD11C,0.03162*%
%ADD12C,0.07400*%
%ADD13C,0.07800*%
%ADD14OC8,0.06400*%
%ADD15C,0.08600*%
%ADD16C,0.07850*%
%ADD17C,0.06800*%
%ADD18C,0.07800*%
D10*
X0027800Y0130500D03*
X0037800Y0130500D03*
X0146800Y0154500D03*
X0156800Y0154500D03*
D11*
X0156800Y0154500D03*
X0146800Y0154500D03*
X0037800Y0130500D03*
X0027800Y0130500D03*
D12*
X0181800Y0174500D03*
X0221800Y0174500D03*
D13*
X0113800Y0072000D02*
X0113800Y0065000D01*
X0093800Y0065000D02*
X0093800Y0072000D01*
X0051800Y0072000D02*
X0051800Y0065000D01*
X0031800Y0065000D02*
X0031800Y0072000D01*
D14*
X0050300Y0082937D03*
X0058737Y0100500D03*
X0016800Y0106437D03*
X0050300Y0135063D03*
X0016800Y0158563D03*
X0095737Y0164500D03*
X0147863Y0164500D03*
X0110863Y0100500D03*
X0238800Y0110437D03*
X0250800Y0109437D03*
X0250800Y0161563D03*
X0238800Y0162563D03*
D15*
X0216800Y0154500D03*
X0187300Y0154500D03*
X0187300Y0075800D03*
X0187300Y0056100D03*
X0216800Y0056100D03*
X0216800Y0075800D03*
D16*
X0035325Y0024657D02*
X0028275Y0024657D01*
X0028275Y0044343D02*
X0035325Y0044343D01*
X0258275Y0064657D02*
X0265325Y0064657D01*
X0265325Y0084343D02*
X0258275Y0084343D01*
D17*
X0256800Y0017500D02*
X0256800Y0011500D01*
X0246800Y0011500D02*
X0246800Y0017500D01*
X0236800Y0017500D02*
X0236800Y0011500D01*
X0226800Y0011500D02*
X0226800Y0017500D01*
X0216800Y0017500D02*
X0216800Y0011500D01*
X0196800Y0011500D02*
X0196800Y0017500D01*
X0186800Y0017500D02*
X0186800Y0011500D01*
X0176800Y0011500D02*
X0176800Y0017500D01*
X0166800Y0017500D02*
X0166800Y0011500D01*
X0156800Y0011500D02*
X0156800Y0017500D01*
X0146800Y0017500D02*
X0146800Y0011500D01*
X0136800Y0011500D02*
X0136800Y0017500D01*
X0126800Y0017500D02*
X0126800Y0011500D01*
X0266800Y0011500D02*
X0266800Y0017500D01*
X0266800Y0191500D02*
X0266800Y0197500D01*
X0256800Y0197500D02*
X0256800Y0191500D01*
X0246800Y0191500D02*
X0246800Y0197500D01*
X0236800Y0197500D02*
X0236800Y0191500D01*
X0226800Y0191500D02*
X0226800Y0197500D01*
X0216800Y0197500D02*
X0216800Y0191500D01*
X0206800Y0191500D02*
X0206800Y0197500D01*
X0196800Y0197500D02*
X0196800Y0191500D01*
X0176800Y0191500D02*
X0176800Y0197500D01*
X0166800Y0197500D02*
X0166800Y0191500D01*
X0156800Y0191500D02*
X0156800Y0197500D01*
X0146800Y0197500D02*
X0146800Y0191500D01*
X0136800Y0191500D02*
X0136800Y0197500D01*
X0126800Y0197500D02*
X0126800Y0191500D01*
X0116800Y0191500D02*
X0116800Y0197500D01*
X0106800Y0197500D02*
X0106800Y0191500D01*
X0096800Y0191500D02*
X0096800Y0197500D01*
X0086800Y0197500D02*
X0086800Y0191500D01*
D18*
X0078800Y0182500D03*
X0073800Y0194500D03*
X0052800Y0188500D03*
X0058800Y0147500D03*
X0088800Y0147500D03*
X0075800Y0120000D03*
X0027800Y0085500D03*
X0131800Y0139500D03*
X0104300Y0178000D03*
M02*
