G75*
%MOIN*%
%OFA0B0*%
%FSLAX25Y25*%
%IPPOS*%
%LPD*%
%AMOC8*
5,1,8,0,0,1.08239X$1,22.5*
%
%ADD10C,0.01600*%
%ADD11C,0.00600*%
%ADD12R,0.07087X0.06299*%
%ADD13R,0.03937X0.05512*%
%ADD14C,0.06600*%
%ADD15C,0.07000*%
%ADD16R,0.04724X0.02362*%
%ADD17R,0.02756X0.03543*%
%ADD18OC8,0.05600*%
%ADD19C,0.07800*%
%ADD20R,0.02559X0.06890*%
%ADD21R,0.05709X0.01181*%
%ADD22R,0.01181X0.05709*%
%ADD23C,0.07050*%
%ADD24C,0.06000*%
%ADD25R,0.05118X0.05906*%
%ADD26R,0.05906X0.05118*%
%ADD27C,0.07000*%
%ADD28C,0.01200*%
%ADD29C,0.18100*%
%ADD30C,0.10000*%
%ADD31C,0.05000*%
%ADD32C,0.00800*%
%ADD33C,0.15000*%
%ADD34C,0.05000*%
D10*
X0011800Y0002800D02*
X0021800Y0012800D01*
X0033800Y0012800D01*
X0043800Y0002800D01*
X0051800Y0002800D01*
X0061800Y0012800D01*
X0072800Y0012800D01*
X0082800Y0002800D01*
X0095800Y0002800D01*
X0105800Y0012800D01*
X0116800Y0012800D01*
X0126800Y0002800D01*
X0136800Y0002800D01*
X0146800Y0012800D01*
X0159800Y0012800D01*
X0170800Y0001800D01*
X0183800Y0001800D01*
X0194800Y0012800D01*
X0206800Y0012800D01*
X0217800Y0001800D01*
X0230800Y0001800D01*
X0241800Y0012800D01*
X0251800Y0012800D01*
X0261800Y0002800D01*
X0271800Y0002800D01*
X0281800Y0012800D01*
X0282800Y0019800D02*
X0011800Y0019800D01*
X0001800Y0031800D02*
X0001800Y0246800D01*
X0286800Y0246800D01*
X0286800Y0031800D01*
X0001800Y0031800D01*
X0076300Y0056300D02*
X0076800Y0056800D01*
X0076800Y0071800D01*
X0076800Y0056800D02*
X0111800Y0056800D01*
X0051800Y0095800D02*
X0051800Y0110237D01*
X0050300Y0110237D01*
X0033800Y0119800D02*
X0067800Y0119800D01*
X0067800Y0120800D01*
X0068800Y0120800D01*
X0068800Y0137800D01*
X0089300Y0137800D01*
X0091800Y0137800D01*
X0110300Y0137800D01*
X0110300Y0143300D01*
X0104442Y0143300D01*
X0104442Y0143560D01*
X0104442Y0151040D02*
X0122800Y0151040D01*
X0122800Y0160800D01*
X0120800Y0160800D01*
X0120800Y0160788D01*
X0120800Y0161288D01*
X0108800Y0161288D01*
X0120800Y0160788D02*
X0134300Y0160788D01*
X0134300Y0147824D01*
X0139300Y0147824D02*
X0139300Y0156800D01*
X0143060Y0156800D01*
X0143060Y0162469D01*
X0134300Y0160788D02*
X0134300Y0166800D01*
X0131800Y0166800D01*
X0131800Y0166300D01*
X0120800Y0171812D02*
X0120800Y0191800D01*
X0132800Y0191800D01*
X0141800Y0191800D01*
X0146800Y0191800D02*
X0146800Y0181800D01*
X0146800Y0171131D01*
X0146800Y0171800D01*
X0146800Y0181800D02*
X0149060Y0181800D01*
X0156540Y0181800D02*
X0158800Y0181800D01*
X0158800Y0192800D01*
X0164800Y0192800D01*
X0164800Y0192288D01*
X0164800Y0153800D01*
X0149300Y0153800D01*
X0149300Y0147824D01*
X0175800Y0131800D02*
X0257800Y0131800D01*
X0257800Y0188800D01*
X0250800Y0188800D01*
X0250800Y0188863D01*
X0245146Y0188863D01*
X0245146Y0197469D01*
X0238800Y0197469D02*
X0238800Y0189863D01*
X0238800Y0147800D01*
X0250800Y0147800D01*
X0250800Y0136737D01*
X0238800Y0137737D02*
X0201800Y0137737D01*
X0201800Y0211800D01*
X0176800Y0211800D01*
X0176800Y0231800D01*
X0164800Y0210800D02*
X0115800Y0210800D01*
X0115800Y0201800D01*
X0104300Y0201800D02*
X0104300Y0205300D01*
X0096800Y0199831D02*
X0096800Y0231800D01*
X0086800Y0231800D02*
X0086800Y0197863D01*
X0088800Y0191800D02*
X0095737Y0191800D01*
X0088800Y0191800D02*
X0088800Y0180800D01*
X0075800Y0180800D01*
X0066800Y0174800D02*
X0058800Y0174800D01*
X0058800Y0195288D01*
X0052300Y0195288D01*
X0039800Y0195288D01*
X0039800Y0194788D01*
X0039800Y0186800D01*
X0037800Y0186800D01*
X0037800Y0177540D01*
X0037800Y0170060D02*
X0038060Y0169800D01*
X0051800Y0169800D01*
X0053800Y0167800D01*
X0072800Y0167800D01*
X0072800Y0170800D01*
X0072769Y0170800D01*
X0083300Y0162800D02*
X0058737Y0162800D01*
X0058737Y0162363D01*
X0058737Y0127800D01*
X0037800Y0143131D02*
X0037800Y0169800D01*
X0037800Y0170060D01*
X0037800Y0169800D02*
X0027800Y0169800D01*
X0027800Y0185800D01*
X0016800Y0185800D01*
X0016800Y0185863D01*
X0039800Y0205812D02*
X0052300Y0205812D01*
X0052300Y0206312D01*
X0052800Y0206312D01*
X0052800Y0215800D01*
X0088800Y0180800D02*
X0088800Y0174800D01*
X0088800Y0172312D01*
X0108800Y0172312D01*
X0120800Y0172312D01*
X0120800Y0171812D01*
X0146800Y0191800D02*
X0147863Y0191800D01*
X0158800Y0192800D02*
X0158800Y0205737D01*
X0158800Y0205800D01*
X0158800Y0205737D02*
X0156800Y0205737D01*
X0164800Y0203312D02*
X0164800Y0210800D01*
X0164800Y0203312D02*
X0173800Y0203312D01*
X0173800Y0192288D02*
X0164800Y0192288D01*
X0173800Y0192288D02*
X0175800Y0192288D01*
X0175800Y0131800D01*
X0187300Y0181800D02*
X0187300Y0201800D01*
X0216800Y0181800D02*
X0227300Y0181800D01*
X0227300Y0201800D01*
X0227300Y0211800D01*
X0241800Y0211800D01*
X0241800Y0206131D01*
X0238800Y0197469D02*
X0238454Y0197469D01*
X0295800Y0207800D02*
X0295800Y0101800D01*
X0303800Y0100800D02*
X0310800Y0107800D01*
X0302800Y0115800D01*
X0310800Y0123800D01*
X0302800Y0131800D01*
X0310800Y0139800D01*
X0302800Y0147800D01*
X0309800Y0154800D01*
X0302800Y0161800D01*
X0309800Y0168800D01*
X0302800Y0175800D01*
X0309800Y0182800D01*
X0302800Y0189800D01*
X0311800Y0198800D01*
X0302800Y0207800D01*
X0186800Y0056800D02*
X0186800Y0041800D01*
X0089300Y0137800D02*
X0089300Y0143560D01*
X0094158Y0143560D01*
X0094158Y0147300D02*
X0075800Y0147300D01*
X0083300Y0151040D02*
X0083300Y0162800D01*
X0083300Y0151040D02*
X0094158Y0151040D01*
X0058737Y0162363D02*
X0050300Y0162363D01*
X0034060Y0134469D02*
X0033800Y0134469D01*
X0033800Y0119800D01*
X0027800Y0112800D02*
X0027800Y0133800D01*
X0016800Y0133800D01*
X0016800Y0133737D01*
D11*
X0013000Y0088425D02*
X0013000Y0084155D01*
X0006595Y0084155D01*
X0008095Y0038425D02*
X0014500Y0038425D01*
X0008095Y0034155D01*
X0014500Y0034155D01*
X0275095Y0126100D02*
X0281500Y0126100D01*
X0281500Y0130370D01*
X0282500Y0079370D02*
X0276095Y0079370D01*
X0276095Y0075100D02*
X0282500Y0079370D01*
X0282500Y0075100D02*
X0276095Y0075100D01*
D12*
X0173800Y0192288D03*
X0164800Y0192288D03*
X0164800Y0203312D03*
X0173800Y0203312D03*
X0120800Y0171812D03*
X0108800Y0172312D03*
X0108800Y0161288D03*
X0120800Y0160788D03*
X0052300Y0195288D03*
X0052300Y0206312D03*
X0039800Y0205812D03*
X0039800Y0194788D03*
D13*
X0037800Y0143131D03*
X0034060Y0134469D03*
X0041540Y0134469D03*
X0143060Y0162469D03*
X0150540Y0162469D03*
X0146800Y0171131D03*
D14*
X0187300Y0201800D03*
X0227300Y0201800D03*
D15*
X0113800Y0099300D02*
X0113800Y0092300D01*
X0093800Y0092300D02*
X0093800Y0099300D01*
X0051800Y0099300D02*
X0051800Y0092300D01*
X0031800Y0092300D02*
X0031800Y0099300D01*
D16*
X0094158Y0143560D03*
X0094158Y0147300D03*
X0094158Y0151040D03*
X0104442Y0151040D03*
X0104442Y0143560D03*
D17*
X0238454Y0197469D03*
X0245146Y0197469D03*
X0241800Y0206131D03*
D18*
X0238800Y0189863D03*
X0250800Y0188863D03*
X0250800Y0136737D03*
X0238800Y0137737D03*
X0147863Y0191800D03*
X0095737Y0191800D03*
X0050300Y0162363D03*
X0016800Y0185863D03*
X0016800Y0133737D03*
X0050300Y0110237D03*
X0058737Y0127800D03*
X0110863Y0127800D03*
D19*
X0187300Y0103100D03*
X0187300Y0083400D03*
X0216800Y0083400D03*
X0216800Y0103100D03*
X0216800Y0181800D03*
X0187300Y0181800D03*
D20*
X0149300Y0147824D03*
X0144300Y0147824D03*
X0139300Y0147824D03*
X0134300Y0147824D03*
X0134300Y0125776D03*
X0139300Y0125776D03*
X0144300Y0125776D03*
X0149300Y0125776D03*
D21*
X0140461Y0197863D03*
X0140461Y0199831D03*
X0140461Y0201800D03*
X0140461Y0203769D03*
X0140461Y0205737D03*
X0123139Y0205737D03*
X0123139Y0203769D03*
X0123139Y0201800D03*
X0123139Y0199831D03*
X0123139Y0197863D03*
D22*
X0074737Y0202961D03*
X0072769Y0202961D03*
X0070800Y0202961D03*
X0068831Y0202961D03*
X0066863Y0202961D03*
X0066863Y0185639D03*
X0068831Y0185639D03*
X0070800Y0185639D03*
X0072769Y0185639D03*
X0074737Y0185639D03*
D23*
X0035325Y0071643D02*
X0028275Y0071643D01*
X0028275Y0051957D02*
X0035325Y0051957D01*
X0258275Y0091957D02*
X0265325Y0091957D01*
X0265325Y0111643D02*
X0258275Y0111643D01*
D24*
X0256800Y0044800D02*
X0256800Y0038800D01*
X0246800Y0038800D02*
X0246800Y0044800D01*
X0236800Y0044800D02*
X0236800Y0038800D01*
X0226800Y0038800D02*
X0226800Y0044800D01*
X0216800Y0044800D02*
X0216800Y0038800D01*
X0196800Y0038800D02*
X0196800Y0044800D01*
X0186800Y0044800D02*
X0186800Y0038800D01*
X0176800Y0038800D02*
X0176800Y0044800D01*
X0166800Y0044800D02*
X0166800Y0038800D01*
X0156800Y0038800D02*
X0156800Y0044800D01*
X0146800Y0044800D02*
X0146800Y0038800D01*
X0136800Y0038800D02*
X0136800Y0044800D01*
X0126800Y0044800D02*
X0126800Y0038800D01*
X0266800Y0038800D02*
X0266800Y0044800D01*
X0266800Y0228800D02*
X0266800Y0234800D01*
X0256800Y0234800D02*
X0256800Y0228800D01*
X0246800Y0228800D02*
X0246800Y0234800D01*
X0236800Y0234800D02*
X0236800Y0228800D01*
X0226800Y0228800D02*
X0226800Y0234800D01*
X0216800Y0234800D02*
X0216800Y0228800D01*
X0206800Y0228800D02*
X0206800Y0234800D01*
X0196800Y0234800D02*
X0196800Y0228800D01*
X0176800Y0228800D02*
X0176800Y0234800D01*
X0166800Y0234800D02*
X0166800Y0228800D01*
X0156800Y0228800D02*
X0156800Y0234800D01*
X0146800Y0234800D02*
X0146800Y0228800D01*
X0136800Y0228800D02*
X0136800Y0234800D01*
X0126800Y0234800D02*
X0126800Y0228800D01*
X0116800Y0228800D02*
X0116800Y0234800D01*
X0106800Y0234800D02*
X0106800Y0228800D01*
X0096800Y0228800D02*
X0096800Y0234800D01*
X0086800Y0234800D02*
X0086800Y0228800D01*
D25*
X0149060Y0181800D03*
X0156540Y0181800D03*
D26*
X0037800Y0177540D03*
X0037800Y0170060D03*
D27*
X0058800Y0174800D03*
X0088800Y0174800D03*
X0075800Y0147300D03*
X0027800Y0112800D03*
X0131800Y0166800D03*
X0104300Y0205300D03*
X0078800Y0209800D03*
X0073800Y0221800D03*
X0052800Y0215800D03*
D28*
X0063800Y0206800D02*
X0066863Y0206800D01*
X0066863Y0202961D01*
X0066800Y0202961D01*
X0066800Y0228800D01*
X0086800Y0228800D01*
X0086800Y0231800D01*
X0073800Y0221800D02*
X0073800Y0215800D01*
X0068800Y0215800D01*
X0068800Y0202961D01*
X0068831Y0202961D01*
X0070800Y0202961D02*
X0070800Y0209800D01*
X0078800Y0209800D01*
X0086800Y0197863D02*
X0123139Y0197863D01*
X0123139Y0199831D02*
X0096800Y0199831D01*
X0104300Y0201800D02*
X0115800Y0201800D01*
X0123139Y0201800D01*
X0132800Y0205800D02*
X0132800Y0191800D01*
X0140461Y0197800D02*
X0140461Y0197863D01*
X0144800Y0197863D01*
X0144800Y0197800D01*
X0147800Y0197800D01*
X0147800Y0201800D01*
X0140461Y0201800D01*
X0144800Y0201800D01*
X0144800Y0197800D02*
X0141800Y0197800D01*
X0141800Y0191800D01*
X0141800Y0197800D02*
X0140461Y0197800D01*
X0140461Y0203769D02*
X0151800Y0203800D01*
X0151800Y0191800D01*
X0147863Y0191800D01*
X0140461Y0205737D02*
X0140461Y0205800D01*
X0132800Y0205800D01*
X0140461Y0205737D02*
X0156800Y0205737D01*
X0075800Y0180800D02*
X0074737Y0180800D01*
X0074737Y0185639D01*
X0072769Y0185639D02*
X0072769Y0170800D01*
X0070800Y0174800D02*
X0066800Y0174800D01*
X0070800Y0174800D02*
X0070800Y0185639D01*
X0066863Y0185639D02*
X0066800Y0185639D01*
X0066800Y0181800D01*
X0063800Y0181800D01*
X0063800Y0206800D01*
D29*
X0156800Y0119800D02*
X0169800Y0093800D01*
X0126800Y0118800D02*
X0113800Y0095800D01*
X0093800Y0095800D01*
X0051800Y0095800D02*
X0031800Y0095800D01*
X0031800Y0071643D01*
X0216800Y0103100D02*
X0216800Y0111800D01*
X0261800Y0111800D01*
X0261800Y0111643D01*
D30*
X0261800Y0091957D02*
X0261800Y0081800D01*
X0187300Y0083400D02*
X0169800Y0093800D01*
X0134300Y0125776D02*
X0126800Y0118800D01*
D31*
X0134800Y0118800D02*
X0137800Y0122800D01*
X0134300Y0125776D01*
X0145800Y0124800D02*
X0145800Y0122800D01*
X0150800Y0124800D01*
X0152800Y0122800D01*
X0146800Y0119800D01*
X0153800Y0120800D01*
X0148800Y0117800D01*
X0156800Y0119800D01*
X0149300Y0125776D02*
X0146800Y0127800D01*
X0145800Y0124800D01*
D32*
X0144300Y0125776D02*
X0149300Y0125776D01*
X0139300Y0125776D02*
X0134800Y0118800D01*
D33*
X0111800Y0056800D02*
X0186800Y0056800D01*
X0261800Y0056800D01*
X0261800Y0081800D01*
X0111800Y0056800D02*
X0111800Y0051800D01*
X0031800Y0051957D01*
D34*
X0076800Y0071800D03*
M02*
